<svg xmlns="http://www.w3.org/2000/svg" fill="none" viewBox="0 0 880 880"><path fill="#332D2A" fill-rule="evenodd" d="M384.047 100.308c13.45 0 24.422-17.597 24.422-39.17 0-21.577-10.972-39.171-24.422-39.171-13.455 0-24.428 17.594-24.428 39.17 0 21.574 10.973 39.171 24.428 39.171ZM196.901 146.676c71.399 0 142.371 74.149 158.523 165.619 16.153 91.469-28.636 165.617-100.033 165.617-71.399 0-142.371-74.148-158.523-165.617-16.15-91.47 28.635-165.619 100.033-165.619Z" clip-rule="evenodd"/><path fill="#C30" fill-rule="evenodd" d="M367.215 141.199c91.468 7.585 147.536 103.72 125.234 214.728-22.308 111.006-114.538 194.845-206.008 187.261-91.469-7.585-147.537-103.721-125.232-214.729 22.304-111.006 114.536-194.846 206.006-187.26Z" clip-rule="evenodd"/><path fill="#A89A8C" fill-rule="evenodd" d="M371.007 385.288c201.212-52.341 396.829-11.535 436.921 91.145 40.093 102.679-90.519 228.344-291.733 280.688-201.215 52.338-396.831 11.531-436.924-91.149-40.092-102.677 90.521-228.345 291.736-280.684Z" clip-rule="evenodd"/><path fill="#4D4441" fill-rule="evenodd" d="m293.585 560.753 256.33-126.584c9.624-4.75 19.372-1.806 28.726 3.458l133.452 75.096c4.362 2.456 5.663 7.736 5.154 12.714-.512 4.982-3.223 9.031-7.632 11.4L445.093 679.029c-10.705 5.756-21.981 1.948-31.817-5.193l-123.88-89.929c-3.877-2.815-4.588-7.918-3.735-12.632.852-4.712 3.63-8.4 7.924-10.522Z" clip-rule="evenodd"/><path fill="#332D2A" fill-rule="evenodd" d="m367.004 619.789 55.997 40.651c3.592 2.608 11.486 6.156 19.564.943l242.739-130.284c2.521-1.355 3.959-3.858 3.855-6.719-.103-2.86-1.719-5.253-4.332-6.42l-61.135-27.308c-3.444-1.937-9.225-5.036-13.276-3.037L368.063 607.296c-2.366 1.167-3.832 3.317-4.054 5.945-.225 2.63.859 4.996 2.995 6.548Z" clip-rule="evenodd"/><path fill="#7D6F6A" fill-rule="evenodd" d="m445.093 679.029 64.036-125.382c8.354-16.36 19.906-28.051 35.882-37.116l234.764-133.186c9.173-5.204 13.204 2.292 7.794 13.683l-54.253 114.189c-5.345 11.255-12.729 19.719-23.701 25.62L445.093 679.029Z" clip-rule="evenodd"/><path fill="#332D2A" fill-rule="evenodd" d="m422.151 535.897 26.345 19.13c1.693 1.225 5.407 2.897 9.207.444l62.382-30.044c2.58-1.243 2.247-4.64-.224-6.182l-29.3-18.258c-1.621-.914-5.542-.702-7.45.241l-60.463 28.792c-1.12.533-1.804 1.563-1.908 2.799-.105 1.237.403 2.35 1.411 3.078Z" clip-rule="evenodd"/><path fill="#F29D72" fill-rule="evenodd" d="M342.127 522.331c19.905-3.026 36.044 3.989 36.044 15.669s-16.139 23.603-36.044 26.629c-19.906 3.024-36.043-3.989-36.043-15.672 0-11.68 16.137-23.6 36.043-26.626Z" clip-rule="evenodd"/><path fill="#C30" fill-rule="evenodd" d="M286.219 157.332c-351.618 96.483-216.04 477.075 25.533 403.536 17.976-5.472 22.923-26.032 12.72-30.52-113.436-49.936-168.079-103.003-144.275-251.419 14.827-33.5 49.551-89.498 106.022-121.597Z" clip-rule="evenodd"/><path fill="#E78A5B" fill-rule="evenodd" d="M392.364 153.904c14.612 6.343 23.644 16.704 23.644 29.604 0 25.931-36.471 52.3-81.459 58.899-44.988 6.598-81.457-9.074-81.457-35.004 0-15.132 12.423-30.414 31.709-41.828 12.572-7.44 20.494-18.748 23.191-33.106l8.216-43.732 60.768 5.958-3.605 25.232c-2.072 14.517 5.54 28.138 18.993 33.977Z" clip-rule="evenodd"/><path fill="#D97746" fill-rule="evenodd" d="M392.364 153.904c5.58 2.423 10.344 5.428 14.103 8.94-9.235 9.516-21.434 15.191-35.238 15.191-27.36 0-52.368-22.296-61.913-52.615l6.892-36.683 60.768 5.958-3.605 25.232c-2.072 14.517 5.54 28.138 18.993 33.977Z" clip-rule="evenodd"/><path fill="#DE8558" fill-rule="evenodd" d="M350.001 21.79c32.77 0 62.167 31.973 65.664 71.415 3.499 39.443-20.232 71.416-52.997 71.416-32.768 0-62.168-31.973-65.664-71.416-3.497-39.442 20.231-71.416 52.997-71.416Z" clip-rule="evenodd"/><path fill="#C30" fill-rule="evenodd" d="M399.337 147.899c149.028 13.976 226.254 156.813 149.516 302.46-8.964 17.013-38.272 2.598-30.044-9.226 23.699-34.064 20.168-81.052-22.256-114.241 1.998-68.945-25.934-151.751-97.216-178.993Z" clip-rule="evenodd"/><path fill="#8C2300" fill-rule="evenodd" d="M520.795 353.216c-5.888-9.336-13.907-18.241-24.242-26.324l4.931-62.405 19.332 88.753-.021-.024Z" clip-rule="evenodd"/><path fill="#F29D72" fill-rule="evenodd" d="M515.517 442.861c14.748-7.084 28.955-5.47 31.734 3.604 2.78 9.079-6.923 22.179-21.671 29.268-14.749 7.086-28.96 5.472-31.737-3.602-2.778-9.079 6.925-22.182 21.674-29.27Z" clip-rule="evenodd"/><path fill="#8C2300" fill-rule="evenodd" d="M208.111 451.697c-8.024-30.678-7.95-61.36.708-92.04l29.124 75.558v.018a530.8 530.8 0 0 0-29.807 16.464h-.025Z" clip-rule="evenodd"/><path fill="#332D2A" fill-rule="evenodd" d="M310.991 110.335c13.453 0 24.425-17.598 24.425-39.171 0-21.576-10.972-39.172-24.425-39.172-13.452 0-24.427 17.596-24.427 39.172 0 21.573 10.975 39.171 24.427 39.171Z" clip-rule="evenodd"/><path fill="#DE8558" fill-rule="evenodd" d="M313.623 119.256c8.532 0 15.488-9.444 15.488-21.027 0-11.58-6.956-21.026-15.488-21.026-8.531 0-15.487 9.446-15.487 21.026 0 11.583 6.956 21.027 15.487 21.027Z" clip-rule="evenodd"/><path fill="#332D2A" fill-rule="evenodd" d="M360.139 64.461c30.761 0 55.852-13.917 55.852-30.98 0-17.06-25.091-30.978-55.852-30.978-30.763 0-55.852 13.917-55.852 30.978 0 17.063 25.089 30.98 55.852 30.98Z" clip-rule="evenodd"/><path fill="#4D4441" fill-rule="evenodd" d="M267.644 653.663c20.343 0 36.936-9.099 36.936-20.258 0-11.156-16.593-20.254-36.936-20.254-20.344 0-36.937 9.098-36.937 20.254 0 11.159 16.593 20.258 36.937 20.258Z" clip-rule="evenodd"/><g clip-path="url(#a)"><path fill="#444C4D" fill-opacity=".41" d="M129.64 662.574c0 .781 1.452 1.53 4.036 2.082 2.584.552 6.088.862 9.743.862 3.654 0 7.159-.31 9.743-.862 2.584-.552 4.036-1.301 4.036-2.082 0-.781-1.452-1.53-4.036-2.082-2.584-.552-6.089-.863-9.743-.863-3.655 0-7.159.311-9.743.863-2.584.552-4.036 1.301-4.036 2.082Z"/><path fill="#B2EDA6" d="M143.585 654.557h-12.719l-1.445 6.071c0 .908 3.694 1.642 7.805 1.642s7.804-.734 7.804-1.642l-1.445-6.071Z"/><path fill="#3C663E" d="M137.226 662.848c-.343 0-8.383-.025-8.383-2.22 0-.045.005-.09.016-.134l1.445-6.07a.578.578 0 0 1 .562-.445h12.719a.575.575 0 0 1 .562.445l1.446 6.07c.01.044.015.089.015.134 0 2.195-8.04 2.22-8.382 2.22Zm-7.2-2.265c.474.425 3.096 1.109 7.2 1.109 4.103 0 6.726-.684 7.199-1.109l-1.297-5.447h-11.805l-1.297 5.447Z"/><path fill="#3C663E" d="M137.226 661.447c-.343 0-8.239-.01-8.239-2.204 0-.32.115-.594.434-.594a.576.576 0 0 1 .573.501c.374.422 3.024 1.141 7.232 1.141s6.858-.719 7.231-1.141a.576.576 0 0 1 .573-.501c.319 0 .313.323.313.642 0 2.195-7.775 2.156-8.117 2.156Z"/><path fill="#B2EDA6" d="M146.784 640.759c-.344-.926 0-1.679 0-1.679s-3.517-3.066-4.045-3.593c-.527-.527-.516-.968-.903-1.248-.388-.28-2.281-.861-2.367-.946-.086-.087.546-.736.886-1.076-.258-.194-1.811-.194-2.134-.194-.323 0-.367-1.924-.367-2.903-.807 0-1.774 2.677-1.774 2.677-2.55 0-6.745 3.486-6.745 9.553 0 2.421 1.549 6.649 2.129 8.714.139.49.289 1.193.32 1.603 3.656.011 7.226 0 10.984 0 .035-.482-.051-1.134-.051-1.85 0-2.991-5.701-8.09-5.701-8.478.193.194.968.366 1.29.366 1.313 0 1.872-.602 2.927-.602 1.054 0 1.377 1.678 2.99 1.678 1.614 0 1.786-.753 1.915-.861.776-.516.754-.925.646-1.161Z"/><path fill="#3C663E" d="M135.422 652.25c-1.21 0-2.42-.002-3.64-.005a.578.578 0 0 1-.574-.536c-.025-.329-.153-.969-.299-1.488a67.88 67.88 0 0 0-.515-1.691c-.691-2.205-1.637-5.224-1.637-7.18 0-5.907 3.957-9.773 6.914-10.107.448-1.144 1.233-2.701 2.184-2.701a.578.578 0 0 1 .578.578c0 1.281.068 1.996.129 2.327 1.757.019 1.986.191 2.141.307a.577.577 0 0 1 .062.871c-.159.159-.286.29-.387.397.873.309 1.513.543 1.796.748.302.218.444.487.57.724.102.195.2.38.404.584.406.406 2.805 2.51 4.017 3.566a.579.579 0 0 1 .145.676c-.006.017-.231.555.011 1.222.161.373.251 1.076-.776 1.801-.187.291-.678 1.016-2.321 1.016-1.137 0-1.78-.663-2.249-1.148-.319-.329-.526-.53-.741-.53-.401 0-.728.113-1.106.244-.427.149-.904.314-1.554.351 2.312 2.512 4.723 5.349 4.723 7.54 0 .302.016.594.031.876.021.366.04.712.017 1.017a.576.576 0 0 1-.576.536l-3.737.002-3.61.003Zm-3.132-1.16c2.254.005 4.479.003 6.741.001l3.16-.002a27.453 27.453 0 0 0-.018-.333c-.02-.313-.031-.626-.033-.94 0-1.973-3.081-5.31-4.562-6.914-.966-1.046-1.14-1.234-1.14-1.563a.576.576 0 0 1 .344-.529.582.582 0 0 1 .623.101c.145.089.674.216.902.216.595 0 1.006-.143 1.442-.294.437-.152.888-.309 1.484-.309.717 0 1.171.469 1.571.882.415.428.772.797 1.42.797 1.037 0 1.253-.337 1.356-.498.047-.073.099-.154.188-.229l.05-.037c.412-.275.442-.436.442-.437l-.018-.042a2.975 2.975 0 0 1-.12-1.691c-.853-.745-3.34-2.922-3.791-3.373a3.28 3.28 0 0 1-.61-.862c-.096-.18-.145-.269-.224-.326-.178-.127-1.077-.445-1.509-.598-.68-.24-.802-.283-.927-.408-.367-.367-.102-.798.127-1.082-.322-.014-.644-.02-.967-.019-.59 0-.842-.506-.918-2.112-.265.484-.492.986-.679 1.505a.585.585 0 0 1-.544.381c-2.152 0-6.167 3.083-6.167 8.975 0 1.779.915 4.701 1.584 6.834.209.667.389 1.243.524 1.723.094.332.2.78.269 1.183Z"/><path fill="#fff" d="M133.034 652.146a.578.578 0 0 1-.556-.422 52.937 52.937 0 0 0-.675-2.109c-.804-2.412-1.804-5.413-1.804-7.28 0-6.367 3.285-10.803 6.233-10.803a.578.578 0 0 1 0 1.156c-2.07 0-5.077 3.758-5.077 9.647 0 1.68 1.009 4.705 1.745 6.914.285.857.532 1.596.691 2.162a.575.575 0 0 1-.096.506.575.575 0 0 1-.461.229Z"/><path fill="#B2EDA6" d="M146.765 653.112c0 .798-.471 1.445-1.052 1.445h-16.397c-.581 0-1.051-.647-1.051-1.445s.47-1.445 1.051-1.445h16.398c.58 0 1.051.647 1.051 1.445Z"/><path fill="#3C663E" d="M145.713 655.136h-16.397c-.914 0-1.629-.889-1.629-2.024 0-1.134.715-2.023 1.629-2.023h16.398c.913 0 1.629.889 1.629 2.023 0 1.135-.716 2.024-1.63 2.024Zm-16.397-2.891c-.193 0-.473.338-.473.867 0 .53.28.867.473.867h16.398c.193 0 .473-.337.473-.867 0-.529-.28-.867-.473-.867h-16.398Zm8.494-15.373a1.157 1.157 0 0 0 2.3-.238l-2.3.238Z"/><path fill="#3C663E" d="M137.14 663.229c-2.035 0-8.672-.181-8.672-2.509 0-.074.009-.147.028-.219l1.248-4.788h-.323c-1.383 0-2.313-1.345-2.313-2.601s.93-2.602 2.313-2.602h1.236l-.027-.094c-.129-.46-.307-1.026-.512-1.682-.696-2.223-1.65-5.266-1.65-7.266 0-6.049 3.892-9.91 6.997-10.374.727-1.808 1.53-2.724 2.389-2.724a.87.87 0 0 1 .868.867c0 1.018.043 1.669.089 2.042 1.494.031 1.826.182 2.065.362a.864.864 0 0 1 .093 1.307l-.071.071c.695.25 1.181.444 1.446.635.355.257.522.571.655.823.097.183.18.341.354.515.415.415 3.029 2.705 4.001 3.552a.865.865 0 0 1 .219 1.015c-.001.005-.179.447.017.996.161.38.34 1.257-.833 2.109-.332.491-.962 1.102-2.533 1.102-1.26 0-1.98-.744-2.457-1.236-.192-.197-.429-.442-.534-.442-.352 0-.643.1-1.011.228-.297.103-.639.222-1.056.298 2.226 2.447 4.419 5.149 4.419 7.32 0 .234.004.418.007.577h1.727c1.405 0 2.313 1.021 2.313 2.601 0 1.675-.972 2.891-2.313 2.891h-.63l1.098 4.512a.834.834 0 0 1 .025.205c0 2.328-6.638 2.509-8.672 2.509Zm-6.864-2.682c.726.389 3.258.948 6.864.948 3.615 0 6.151-.562 6.869-.951l-1.267-5.203a.866.866 0 0 1 .464-.985.86.86 0 0 1 .379-.087h1.734c.324 0 .579-.508.579-1.157 0-.867-.362-.867-.579-.867h-2.601a.87.87 0 0 1-.817-.575.878.878 0 0 1-.049-.349c.017-.259.013-.443.007-.722a29.402 29.402 0 0 1-.009-.664c0-1.861-3.143-5.265-4.485-6.719-1.007-1.09-1.216-1.317-1.216-1.759a.867.867 0 0 1 1.417-.67c.157.075.589.169.741.169.546 0 .917-.129 1.347-.278.438-.152.934-.324 1.579-.324.838 0 1.36.537 1.779.969.438.452.711.708 1.212.708.879 0 1.037-.246 1.113-.365.052-.081.123-.191.246-.294a.812.812 0 0 1 .075-.056c.151-.1.236-.178.282-.227a3.277 3.277 0 0 1-.132-1.593c-.97-.847-3.24-2.837-3.682-3.278a3.553 3.553 0 0 1-.66-.931c-.052-.097-.11-.207-.138-.227-.182-.115-1.03-.415-1.437-.559-.731-.259-.863-.306-1.034-.477-.336-.335-.308-.703-.175-1.012a23.617 23.617 0 0 0-.461-.004c-.647 0-.964-.413-1.112-1.337-.076.178-.147.357-.213.539a.872.872 0 0 1-.816.572c-1.994 0-5.877 3.066-5.877 8.686 0 1.735.908 4.632 1.57 6.747.21.67.391 1.248.527 1.732l.051.18c.113.395.211.737.247 1.179a.862.862 0 0 1-.226.659.876.876 0 0 1-.638.28h-2.313c-.306 0-.578.485-.578.867s.272.867.578.867h1.446a.874.874 0 0 1 .686.337.861.861 0 0 1 .153.749l-1.43 5.482Z"/></g><path fill="#000" fill-opacity=".16" d="M290 484c0 3.448 2.687 6.754 7.469 9.192C302.251 495.63 308.737 497 315.5 497c6.763 0 13.249-1.37 18.031-3.808 4.782-2.438 7.469-5.744 7.469-9.192 0-3.448-2.687-6.754-7.469-9.192C328.749 472.37 322.263 471 315.5 471c-6.763 0-13.249 1.37-18.031 3.808-4.782 2.438-7.469 5.744-7.469 9.192Z"/><path fill="#262928" d="m309.461 449.312-6.785 1.219a.456.456 0 0 0-.374.476l1.402 24.215a.46.46 0 0 0 .213.361l17.587 11.036c.143.09.324.093.47.007l6.215-3.641a.457.457 0 0 0 .225-.362l1.984-27.708a.456.456 0 0 0-.343-.476l-20.404-5.12a.451.451 0 0 0-.19-.007Z"/><mask id="b" width="7" height="12" x="322" y="474" maskUnits="userSpaceOnUse" style="mask-type:luminance"><path fill="#fff" d="m322.255 478.942-.239 6.271a.902.902 0 0 0 .052.359.45.45 0 0 0 .168.218c.073.048.16.07.258.064a.744.744 0 0 0 .319-.109l4.67-2.717c.103-.06.203-.144.295-.245a2.153 2.153 0 0 0 .432-.747c.046-.138.076-.278.085-.412l.422-5.968a1.093 1.093 0 0 0-.032-.374.548.548 0 0 0-.141-.25.37.37 0 0 0-.229-.104.57.57 0 0 0-.296.067l-4.852 2.413a1.264 1.264 0 0 0-.339.254 1.937 1.937 0 0 0-.287.375c-.083.139-.151.29-.201.444-.049.154-.079.31-.085.461Z"/></mask><g mask="url(#b)"><path fill="url(#c)" d="m322.255 478.942-.239 6.271a.902.902 0 0 0 .052.359.45.45 0 0 0 .168.218c.073.048.16.07.258.064a.744.744 0 0 0 .319-.109l4.67-2.717c.103-.06.203-.144.295-.245a2.153 2.153 0 0 0 .432-.747c.046-.138.076-.278.085-.412l.422-5.968a1.093 1.093 0 0 0-.032-.374.548.548 0 0 0-.141-.25.37.37 0 0 0-.229-.104.57.57 0 0 0-.296.067l-4.852 2.413a1.264 1.264 0 0 0-.339.254 1.937 1.937 0 0 0-.287.375c-.083.139-.151.29-.201.444-.049.154-.079.31-.085.461Z"/></g><mask id="d" width="8" height="12" x="322" y="465" maskUnits="userSpaceOnUse" style="mask-type:luminance"><path fill="#fff" d="m322.624 469.23-.263 6.914c-.006.155.014.29.053.402.04.113.1.202.176.264a.449.449 0 0 0 .268.103.675.675 0 0 0 .333-.078l4.865-2.391c.107-.053.211-.133.308-.232.096-.099.185-.218.261-.348.077-.131.141-.273.189-.419.048-.146.08-.296.09-.443l.462-6.536a1.314 1.314 0 0 0-.032-.418.708.708 0 0 0-.145-.296.44.44 0 0 0-.237-.147.53.53 0 0 0-.308.034l-5.063 2.013a1.134 1.134 0 0 0-.355.236 1.804 1.804 0 0 0-.3.377c-.087.143-.16.301-.212.465a1.935 1.935 0 0 0-.09.5Z"/></mask><g mask="url(#d)"><path fill="url(#e)" d="m322.624 469.23-.263 6.914c-.006.155.014.29.053.402.04.113.1.202.176.264a.449.449 0 0 0 .268.103.675.675 0 0 0 .333-.078l4.865-2.391c.107-.053.211-.133.308-.232.096-.099.185-.218.261-.348.077-.131.141-.273.189-.419.048-.146.08-.296.09-.443l.462-6.536a1.314 1.314 0 0 0-.032-.418.708.708 0 0 0-.145-.296.44.44 0 0 0-.237-.147.53.53 0 0 0-.308.034l-5.063 2.013a1.134 1.134 0 0 0-.355.236 1.804 1.804 0 0 0-.3.377c-.087.143-.16.301-.212.465a1.935 1.935 0 0 0-.09.5Z"/></g><mask id="f" width="9" height="13" x="322" y="455" maskUnits="userSpaceOnUse" style="mask-type:luminance"><path fill="#fff" d="m323.033 458.478-.291 7.66c-.007.171.013.324.054.455a.78.78 0 0 0 .183.316c.079.08.174.132.281.151.106.02.224.008.348-.041l5.077-1.986a.977.977 0 0 0 .32-.214c.101-.097.193-.216.273-.35a2.138 2.138 0 0 0 .294-.916l.507-7.189a1.645 1.645 0 0 0-.03-.47.975.975 0 0 0-.15-.35.548.548 0 0 0-.247-.197.504.504 0 0 0-.32-.007l-5.292 1.515a.991.991 0 0 0-.373.212c-.117.101-.224.23-.316.378a2.155 2.155 0 0 0-.318 1.033Z"/></mask><g mask="url(#f)"><path fill="url(#g)" d="m323.033 458.478-.291 7.66c-.007.171.013.324.054.455a.78.78 0 0 0 .183.316c.079.08.174.132.281.151.106.02.224.008.348-.041l5.077-1.986a.977.977 0 0 0 .32-.214c.101-.097.193-.216.273-.35a2.138 2.138 0 0 0 .294-.916l.507-7.189a1.645 1.645 0 0 0-.03-.47.975.975 0 0 0-.15-.35.548.548 0 0 0-.247-.197.504.504 0 0 0-.32-.007l-5.292 1.515a.991.991 0 0 0-.373.212c-.117.101-.224.23-.316.378a2.155 2.155 0 0 0-.318 1.033Z"/></g><mask id="h" width="15" height="5" x="315" y="452" maskUnits="userSpaceOnUse" style="mask-type:luminance"><path fill="#fff" d="m316.112 454.538 5.571 1.632c.138.041.297.072.467.094a4.79 4.79 0 0 0 1.053.016c.166-.017.32-.043.45-.08l5.305-1.476a.675.675 0 0 0 .247-.111c.048-.041.064-.085.047-.13-.016-.044-.064-.088-.143-.13a1.452 1.452 0 0 0-.324-.117l-5.593-1.41a3.164 3.164 0 0 0-.41-.071 4.897 4.897 0 0 0-.914-.012 2.664 2.664 0 0 0-.397.06l-5.285 1.254a1.14 1.14 0 0 0-.297.107c-.069.04-.108.083-.116.126-.007.044.017.088.073.13a.827.827 0 0 0 .266.118Z"/></mask><g mask="url(#h)"><path fill="url(#i)" d="m316.112 454.538 5.571 1.632c.138.041.297.072.467.094a4.79 4.79 0 0 0 1.053.016c.166-.017.32-.043.45-.08l5.305-1.476a.675.675 0 0 0 .247-.111c.048-.041.064-.085.047-.13-.016-.044-.064-.088-.143-.13a1.452 1.452 0 0 0-.324-.117l-5.593-1.41a3.164 3.164 0 0 0-.41-.071 4.897 4.897 0 0 0-.914-.012 2.664 2.664 0 0 0-.397.06l-5.285 1.254a1.14 1.14 0 0 0-.297.107c-.069.04-.108.083-.116.126-.007.044.017.088.073.13a.827.827 0 0 0 .266.118Z"/></g><mask id="j" width="14" height="5" x="308" y="450" maskUnits="userSpaceOnUse" style="mask-type:luminance"><path fill="#fff" d="m309.252 452.529 4.692 1.374c.115.034.252.06.402.078a4.451 4.451 0 0 0 1.393-.052l5.281-1.242a.89.89 0 0 0 .259-.094c.057-.035.084-.072.082-.11-.003-.037-.034-.075-.094-.11a.993.993 0 0 0-.265-.099l-4.765-1.201a2.537 2.537 0 0 0-.36-.061 4.612 4.612 0 0 0-.843-.011 3.142 3.142 0 0 0-.383.052l-5.208 1.068a1.43 1.43 0 0 0-.302.091c-.074.033-.12.07-.138.107-.018.037-.007.074.034.11a.59.59 0 0 0 .215.1Z"/></mask><g mask="url(#j)"><path fill="url(#k)" d="m309.252 452.529 4.692 1.374c.115.034.252.06.402.078a4.451 4.451 0 0 0 1.393-.052l5.281-1.242a.89.89 0 0 0 .259-.094c.057-.035.084-.072.082-.11-.003-.037-.034-.075-.094-.11a.993.993 0 0 0-.265-.099l-4.765-1.201a2.537 2.537 0 0 0-.36-.061 4.612 4.612 0 0 0-.843-.011 3.142 3.142 0 0 0-.383.052l-5.208 1.068a1.43 1.43 0 0 0-.302.091c-.074.033-.12.07-.138.107-.018.037-.007.074.034.11a.59.59 0 0 0 .215.1Z"/></g><mask id="l" width="12" height="4" x="303" y="449" maskUnits="userSpaceOnUse" style="mask-type:luminance"><path fill="#fff" d="m303.408 450.817 4.005 1.173c.098.029.218.051.352.067a4.852 4.852 0 0 0 .881.011 3.35 3.35 0 0 0 .416-.056l5.202-1.058a1.2 1.2 0 0 0 .266-.081c.062-.03.097-.062.105-.094.008-.032-.011-.064-.057-.095a.724.724 0 0 0-.219-.085l-4.108-1.035a2.204 2.204 0 0 0-.319-.053 4.536 4.536 0 0 0-1.151.035l-5.1.921a1.788 1.788 0 0 0-.301.078.362.362 0 0 0-.153.092c-.025.032-.024.064.006.095.029.03.087.06.175.085Z"/></mask><g mask="url(#l)"><path fill="url(#m)" d="m303.408 450.817 4.005 1.173c.098.029.218.051.352.067a4.852 4.852 0 0 0 .881.011 3.35 3.35 0 0 0 .416-.056l5.202-1.058a1.2 1.2 0 0 0 .266-.081c.062-.03.097-.062.105-.094.008-.032-.011-.064-.057-.095a.724.724 0 0 0-.219-.085l-4.108-1.035a2.204 2.204 0 0 0-.319-.053 4.536 4.536 0 0 0-1.151.035l-5.1.921a1.788 1.788 0 0 0-.301.078.362.362 0 0 0-.153.092c-.025.032-.024.064.006.095.029.03.087.06.175.085Z"/></g><path fill="#262928" d="m306.449 448.434-7.389 1.163a.427.427 0 0 0-.339.288l-6.653 20.047a.427.427 0 0 0 .056.384l14.217 20.21a.43.43 0 0 0 .554.13l6.277-3.416a.436.436 0 0 0 .139-.121l12.732-17.151a.43.43 0 0 0-.029-.548l-19.185-20.853a.427.427 0 0 0-.38-.133Z"/><path fill="#FACA15" d="m309.674 486.468-2.366 3.479a.39.39 0 0 0-.08.179c-.002.043.019.069.061.077.042.009.105 0 .186-.026.08-.026.179-.07.293-.132l4.694-2.549c.104-.057.215-.126.325-.202.111-.077.221-.161.326-.247.105-.087.203-.175.29-.262a2.15 2.15 0 0 0 .217-.246l2.551-3.443a.705.705 0 0 0 .115-.207c.016-.053.008-.091-.021-.11-.029-.02-.079-.023-.149-.006-.07.016-.16.052-.268.107l-4.878 2.514a3.786 3.786 0 0 0-.37.223 4.944 4.944 0 0 0-.692.574 2.117 2.117 0 0 0-.234.277ZM313.539 480.787l-2.777 4.082a.552.552 0 0 0-.101.216c-.008.054.009.09.049.108.04.017.102.016.184-.005s.184-.062.303-.123l4.89-2.51c.108-.055.224-.126.342-.206a4.964 4.964 0 0 0 .664-.55 2.53 2.53 0 0 0 .244-.279l2.964-4.001a.99.99 0 0 0 .142-.248c.024-.066.022-.116-.002-.146-.025-.031-.072-.043-.141-.033a.973.973 0 0 0-.273.093l-5.076 2.429a3.065 3.065 0 0 0-.392.227 4.58 4.58 0 0 0-.754.627c-.107.11-.198.219-.266.319ZM318.127 474.041l-3.304 4.858a.8.8 0 0 0-.129.263c-.015.069-.004.119.033.148.036.029.097.037.179.024.083-.014.188-.049.312-.108l5.088-2.422c.112-.053.234-.125.359-.208a4.867 4.867 0 0 0 .721-.599 2.97 2.97 0 0 0 .278-.319l3.485-4.706c.086-.116.145-.217.178-.301.034-.083.041-.149.023-.194-.017-.045-.061-.069-.128-.07a.71.71 0 0 0-.275.072l-5.269 2.27c-.129.055-.27.134-.414.228a4.854 4.854 0 0 0-.829.691 2.97 2.97 0 0 0-.308.373Z"/><mask id="n" width="14" height="11" x="312" y="462" maskUnits="userSpaceOnUse" style="mask-type:luminance"><path fill="#fff" d="m312.636 465.414 5.08 5.923a2.166 2.166 0 0 0 .913.618c.168.059.337.092.497.097.159.005.308-.018.438-.073l5.284-2.232a.528.528 0 0 0 .257-.213.572.572 0 0 0 .077-.318.975.975 0 0 0-.099-.378 1.597 1.597 0 0 0-.273-.395l-4.969-5.412a2.147 2.147 0 0 0-.819-.54 1.721 1.721 0 0 0-.444-.102 1.05 1.05 0 0 0-.398.037l-5.395 1.721a.669.669 0 0 0-.31.194.553.553 0 0 0-.133.303.777.777 0 0 0 .051.372c.049.13.129.265.243.398Z"/></mask><g mask="url(#n)"><path fill="url(#o)" d="m312.636 465.414 5.08 5.923a2.166 2.166 0 0 0 .913.618c.168.059.337.092.497.097.159.005.308-.018.438-.073l5.284-2.232a.528.528 0 0 0 .257-.213.572.572 0 0 0 .077-.318.975.975 0 0 0-.099-.378 1.597 1.597 0 0 0-.273-.395l-4.969-5.412a2.147 2.147 0 0 0-.819-.54 1.721 1.721 0 0 0-.444-.102 1.05 1.05 0 0 0-.398.037l-5.395 1.721a.669.669 0 0 0-.31.194.553.553 0 0 0-.133.303.777.777 0 0 0 .051.372c.049.13.129.265.243.398Z"/></g><mask id="p" width="14" height="9" x="305" y="455" maskUnits="userSpaceOnUse" style="mask-type:luminance"><path fill="#fff" d="m306.008 457.686 4.579 5.339c.11.128.243.243.389.339.146.097.304.176.466.234.161.058.326.094.483.106.156.011.306-.002.438-.043l5.402-1.691a.557.557 0 0 0 .271-.173.468.468 0 0 0 .102-.272.74.74 0 0 0-.069-.331 1.323 1.323 0 0 0-.239-.354l-4.511-4.914a2.102 2.102 0 0 0-.772-.505 1.903 1.903 0 0 0-.433-.107 1.187 1.187 0 0 0-.398.016l-5.469 1.265a.72.72 0 0 0-.321.155.48.48 0 0 0-.153.257.6.6 0 0 0 .024.324c.039.115.109.236.211.355Z"/></mask><g mask="url(#p)"><path fill="url(#q)" d="m306.008 457.686 4.579 5.339c.11.128.243.243.389.339.146.097.304.176.466.234.161.058.326.094.483.106.156.011.306-.002.438-.043l5.402-1.691a.557.557 0 0 0 .271-.173.468.468 0 0 0 .102-.272.74.74 0 0 0-.069-.331 1.323 1.323 0 0 0-.239-.354l-4.511-4.914a2.102 2.102 0 0 0-.772-.505 1.903 1.903 0 0 0-.433-.107 1.187 1.187 0 0 0-.398.016l-5.469 1.265a.72.72 0 0 0-.321.155.48.48 0 0 0-.153.257.6.6 0 0 0 .024.324c.039.115.109.236.211.355Z"/></g><mask id="r" width="13" height="9" x="299" y="448" maskUnits="userSpaceOnUse" style="mask-type:luminance"><path fill="#fff" d="m300.008 450.69 4.148 4.837c.1.116.223.221.36.311a2.172 2.172 0 0 0 .913.335c.154.016.302.011.436-.019l5.473-1.24a.593.593 0 0 0 .283-.139.395.395 0 0 0 .121-.232.564.564 0 0 0-.043-.292 1.092 1.092 0 0 0-.211-.319l-4.113-4.48a1.678 1.678 0 0 0-.33-.273 2.14 2.14 0 0 0-.822-.312 1.285 1.285 0 0 0-.396-.003l-5.508.883a.78.78 0 0 0-.327.123.424.424 0 0 0-.169.218.463.463 0 0 0 .001.283c.03.103.091.211.184.319Z"/></mask><g mask="url(#r)"><path fill="url(#s)" d="m300.008 450.69 4.148 4.837c.1.116.223.221.36.311a2.172 2.172 0 0 0 .913.335c.154.016.302.011.436-.019l5.473-1.24a.593.593 0 0 0 .283-.139.395.395 0 0 0 .121-.232.564.564 0 0 0-.043-.292 1.092 1.092 0 0 0-.211-.319l-4.113-4.48a1.678 1.678 0 0 0-.33-.273 2.14 2.14 0 0 0-.822-.312 1.285 1.285 0 0 0-.396-.003l-5.508.883a.78.78 0 0 0-.327.123.424.424 0 0 0-.169.218.463.463 0 0 0 .001.283c.03.103.091.211.184.319Z"/></g><path fill="#262928" d="m292.109 454.034-7.54 1.355a.39.39 0 0 0-.32.417l2.179 26.469c.011.125.08.237.187.302l18.757 11.367c.12.072.269.075.391.006l7.074-3.965a.39.39 0 0 0 .199-.327l1.085-30.792a.39.39 0 0 0-.311-.397l-21.554-4.433a.382.382 0 0 0-.147-.002Z"/><mask id="t" width="14" height="4" x="291" y="455" maskUnits="userSpaceOnUse" style="mask-type:luminance"><path fill="#fff" d="m304.125 456.537-5.021-1.039a2.93 2.93 0 0 0-.382-.049 5.829 5.829 0 0 0-.912.011c-.15.013-.294.033-.421.059l-5.761 1.155c-.14.028-.253.061-.336.095-.084.034-.139.07-.163.106-.023.036-.016.071.023.105a.57.57 0 0 0 .219.09l4.893 1.208c.121.03.266.052.426.066a5.535 5.535 0 0 0 1.515-.084l5.888-1.325a1.22 1.22 0 0 0 .294-.097c.066-.035.1-.072.102-.108.003-.036-.027-.072-.088-.104a1.01 1.01 0 0 0-.276-.089Z"/></mask><g mask="url(#t)"><path fill="url(#u)" d="m304.125 456.537-5.021-1.039a2.93 2.93 0 0 0-.382-.049 5.829 5.829 0 0 0-.912.011c-.15.013-.294.033-.421.059l-5.761 1.155c-.14.028-.253.061-.336.095-.084.034-.139.07-.163.106-.023.036-.016.071.023.105a.57.57 0 0 0 .219.09l4.893 1.208c.121.03.266.052.426.066a5.535 5.535 0 0 0 1.515-.084l5.888-1.325a1.22 1.22 0 0 0 .294-.097c.066-.035.1-.072.102-.108.003-.036-.027-.072-.088-.104a1.01 1.01 0 0 0-.276-.089Z"/></g><mask id="v" width="15" height="5" x="298" y="456" maskUnits="userSpaceOnUse" style="mask-type:luminance"><path fill="#fff" d="m312.374 458.243-5.933-1.227a3.665 3.665 0 0 0-.438-.059 5.766 5.766 0 0 0-.994.011 3.596 3.596 0 0 0-.439.068l-5.895 1.337c-.145.033-.257.07-.337.11-.08.04-.127.082-.141.124-.013.042.007.085.062.124a.85.85 0 0 0 .274.107l5.849 1.444c.145.036.315.063.497.08s.377.025.572.023c.195-.001.39-.012.573-.032.183-.02.354-.049.501-.087l5.978-1.555a.913.913 0 0 0 .284-.113c.058-.041.08-.084.068-.127-.013-.042-.06-.084-.141-.123a1.485 1.485 0 0 0-.34-.105Z"/></mask><g mask="url(#v)"><path fill="url(#w)" d="m312.374 458.243-5.933-1.227a3.665 3.665 0 0 0-.438-.059 5.766 5.766 0 0 0-.994.011 3.596 3.596 0 0 0-.439.068l-5.895 1.337c-.145.033-.257.07-.337.11-.08.04-.127.082-.141.124-.013.042.007.085.062.124a.85.85 0 0 0 .274.107l5.849 1.444c.145.036.315.063.497.08s.377.025.572.023c.195-.001.39-.012.573-.032.183-.02.354-.049.501-.087l5.978-1.555a.913.913 0 0 0 .284-.113c.058-.041.08-.084.068-.127-.013-.042-.06-.084-.141-.123a1.485 1.485 0 0 0-.34-.105Z"/></g><mask id="x" width="9" height="14" x="305" y="459" maskUnits="userSpaceOnUse" style="mask-type:luminance"><path fill="#fff" d="M313.762 459.986a1.096 1.096 0 0 0-.187-.388.594.594 0 0 0-.654-.232l-5.968 1.594c-.147.04-.287.119-.416.229-.128.109-.245.25-.343.411a2.184 2.184 0 0 0-.233.535 2.184 2.184 0 0 0-.087.598l-.022 8.451c-.001.19.028.359.08.504a.911.911 0 0 0 .221.354c.093.09.204.149.326.173a.736.736 0 0 0 .396-.039l5.719-2.108c.125-.046.246-.127.357-.232.111-.106.212-.236.297-.383a2.216 2.216 0 0 0 .297-1.01l.272-7.938a1.728 1.728 0 0 0-.055-.519Z"/></mask><g mask="url(#x)"><path fill="url(#y)" d="M313.762 459.986a1.096 1.096 0 0 0-.187-.388.594.594 0 0 0-.654-.232l-5.968 1.594c-.147.04-.287.119-.416.229-.128.109-.245.25-.343.411a2.184 2.184 0 0 0-.233.535 2.184 2.184 0 0 0-.087.598l-.022 8.451c-.001.19.028.359.08.504a.911.911 0 0 0 .221.354c.093.09.204.149.326.173a.736.736 0 0 0 .396-.039l5.719-2.108c.125-.046.246-.127.357-.232.111-.106.212-.236.297-.383a2.216 2.216 0 0 0 .297-1.01l.272-7.938a1.728 1.728 0 0 0-.055-.519Z"/></g><mask id="z" width="9" height="14" x="305" y="470" maskUnits="userSpaceOnUse" style="mask-type:luminance"><path fill="#fff" d="M313.203 470.877a.534.534 0 0 0-.277-.165.596.596 0 0 0-.349.031l-5.683 2.13c-.14.053-.273.14-.395.254a1.864 1.864 0 0 0-.326.411 2.21 2.21 0 0 0-.221.51c-.053.18-.082.367-.083.55l-.02 7.651c0 .172.027.323.077.449a.698.698 0 0 0 .21.296.552.552 0 0 0 .31.121.77.77 0 0 0 .377-.079l5.457-2.548a1.18 1.18 0 0 0 .341-.251c.106-.108.203-.238.285-.381.082-.143.149-.3.198-.461.049-.161.079-.327.084-.49l.248-7.235a1.438 1.438 0 0 0-.054-.462.84.84 0 0 0-.179-.331Z"/></mask><g mask="url(#z)"><path fill="url(#A)" d="M313.203 470.877a.534.534 0 0 0-.277-.165.596.596 0 0 0-.349.031l-5.683 2.13c-.14.053-.273.14-.395.254a1.864 1.864 0 0 0-.326.411 2.21 2.21 0 0 0-.221.51c-.053.18-.082.367-.083.55l-.02 7.651c0 .172.027.323.077.449a.698.698 0 0 0 .21.296.552.552 0 0 0 .31.121.77.77 0 0 0 .377-.079l5.457-2.548a1.18 1.18 0 0 0 .341-.251c.106-.108.203-.238.285-.381.082-.143.149-.3.198-.461.049-.161.079-.327.084-.49l.248-7.235a1.438 1.438 0 0 0-.054-.462.84.84 0 0 0-.179-.331Z"/></g><mask id="B" width="9" height="13" x="305" y="481" maskUnits="userSpaceOnUse" style="mask-type:luminance"><path fill="#fff" d="M312.863 481.153a.46.46 0 0 0-.267-.121.636.636 0 0 0-.335.068l-5.442 2.572a1.358 1.358 0 0 0-.377.274 2.039 2.039 0 0 0-.311.41 2.283 2.283 0 0 0-.212.489 1.82 1.82 0 0 0-.078.51l-.019 6.98c0 .157.026.292.074.402a.546.546 0 0 0 .201.248.49.49 0 0 0 .297.078.828.828 0 0 0 .361-.112l5.233-2.913c.116-.064.227-.156.328-.266a2.01 2.01 0 0 0 .273-.38c.079-.14.144-.291.191-.444.047-.152.075-.308.08-.457l.227-6.64c.006-.159-.013-.3-.052-.417a.655.655 0 0 0-.172-.281Z"/></mask><g mask="url(#B)"><path fill="url(#C)" d="M312.863 481.153a.46.46 0 0 0-.267-.121.636.636 0 0 0-.335.068l-5.442 2.572a1.358 1.358 0 0 0-.377.274 2.039 2.039 0 0 0-.311.41 2.283 2.283 0 0 0-.212.489 1.82 1.82 0 0 0-.078.51l-.019 6.98c0 .157.026.292.074.402a.546.546 0 0 0 .201.248.49.49 0 0 0 .297.078.828.828 0 0 0 .361-.112l5.233-2.913c.116-.064.227-.156.328-.266a2.01 2.01 0 0 0 .273-.38c.079-.14.144-.291.191-.444.047-.152.075-.308.08-.457l.227-6.64c.006-.159-.013-.3-.052-.417a.655.655 0 0 0-.172-.281Z"/></g><mask id="D" width="9" height="14" x="297" y="459" maskUnits="userSpaceOnUse" style="mask-type:luminance"><path fill="#fff" d="M297.749 468.938c.048.168.116.329.199.473.082.144.179.273.286.376.107.104.223.183.344.229l5.569 2.094c.138.052.27.064.39.04a.628.628 0 0 0 .322-.17.907.907 0 0 0 .219-.351c.052-.144.08-.313.08-.501l-.003-8.406a2.191 2.191 0 0 0-.313-1.123 1.663 1.663 0 0 0-.338-.403 1.036 1.036 0 0 0-.408-.221l-5.809-1.48a.567.567 0 0 0-.352.018.662.662 0 0 0-.28.221 1.12 1.12 0 0 0-.18.384c-.04.151-.06.323-.054.51l.244 7.792c.005.175.035.35.084.518Z"/></mask><g mask="url(#D)"><path fill="url(#E)" d="M297.749 468.938c.048.168.116.329.199.473.082.144.179.273.286.376.107.104.223.183.344.229l5.569 2.094c.138.052.27.064.39.04a.628.628 0 0 0 .322-.17.907.907 0 0 0 .219-.351c.052-.144.08-.313.08-.501l-.003-8.406a2.191 2.191 0 0 0-.313-1.123 1.663 1.663 0 0 0-.338-.403 1.036 1.036 0 0 0-.408-.221l-5.809-1.48a.567.567 0 0 0-.352.018.662.662 0 0 0-.28.221 1.12 1.12 0 0 0-.18.384c-.04.151-.06.323-.054.51l.244 7.792c.005.175.035.35.084.518Z"/></g><mask id="F" width="9" height="14" x="297" y="470" maskUnits="userSpaceOnUse" style="mask-type:luminance"><path fill="#fff" d="M298.532 480.045c.103.108.214.196.331.253l5.334 2.634a.752.752 0 0 0 .372.087.525.525 0 0 0 .307-.113.679.679 0 0 0 .209-.292c.05-.124.077-.274.077-.445l-.002-7.637c0-.183-.029-.37-.081-.55a2.203 2.203 0 0 0-.218-.51 1.906 1.906 0 0 0-.321-.412 1.21 1.21 0 0 0-.39-.255l-5.554-2.13a.515.515 0 0 0-.606.132.847.847 0 0 0-.174.325 1.43 1.43 0 0 0-.052.456l.223 7.133c.005.161.033.325.08.485.046.16.112.315.191.458.079.142.172.272.274.381Z"/></mask><g mask="url(#F)"><path fill="url(#G)" d="M298.532 480.045c.103.108.214.196.331.253l5.334 2.634a.752.752 0 0 0 .372.087.525.525 0 0 0 .307-.113.679.679 0 0 0 .209-.292c.05-.124.077-.274.077-.445l-.002-7.637c0-.183-.029-.37-.081-.55a2.203 2.203 0 0 0-.218-.51 1.906 1.906 0 0 0-.321-.412 1.21 1.21 0 0 0-.39-.255l-5.554-2.13a.515.515 0 0 0-.606.132.847.847 0 0 0-.174.325 1.43 1.43 0 0 0-.052.456l.223 7.133c.005.161.033.325.08.485.046.16.112.315.191.458.079.142.172.272.274.381Z"/></g><mask id="H" width="8" height="13" x="298" y="480" maskUnits="userSpaceOnUse" style="mask-type:luminance"><path fill="#fff" d="M305.164 485.269a1.902 1.902 0 0 0-.077-.511 2.375 2.375 0 0 0-.208-.493 2.075 2.075 0 0 0-.307-.416 1.391 1.391 0 0 0-.372-.283l-5.32-2.663a.61.61 0 0 0-.325-.073.43.43 0 0 0-.258.114.624.624 0 0 0-.168.274 1.193 1.193 0 0 0-.051.41l.205 6.556c.004.147.031.301.076.454.045.152.108.303.183.443a2.1 2.1 0 0 0 .264.384c.099.113.206.207.318.274l5.118 3.077a.832.832 0 0 0 .357.126.471.471 0 0 0 .493-.307.973.973 0 0 0 .074-.397l-.002-6.969Z"/></mask><g mask="url(#H)"><path fill="url(#I)" d="M305.164 485.269a1.902 1.902 0 0 0-.077-.511 2.375 2.375 0 0 0-.208-.493 2.075 2.075 0 0 0-.307-.416 1.391 1.391 0 0 0-.372-.283l-5.32-2.663a.61.61 0 0 0-.325-.073.43.43 0 0 0-.258.114.624.624 0 0 0-.168.274 1.193 1.193 0 0 0-.051.41l.205 6.556c.004.147.031.301.076.454.045.152.108.303.183.443a2.1 2.1 0 0 0 .264.384c.099.113.206.207.318.274l5.118 3.077a.832.832 0 0 0 .357.126.471.471 0 0 0 .493-.307.973.973 0 0 0 .074-.397l-.002-6.969Z"/></g><mask id="J" width="8" height="13" x="290" y="457" maskUnits="userSpaceOnUse" style="mask-type:luminance"><path fill="#fff" d="M290.928 465.985c.009.163.039.326.085.481.045.155.107.302.18.434s.158.248.25.341a.82.82 0 0 0 .295.202l4.696 1.766a.53.53 0 0 0 .323.025.518.518 0 0 0 .261-.169.853.853 0 0 0 .17-.332c.039-.135.058-.293.052-.467l-.256-7.756a2.17 2.17 0 0 0-.292-1.026 1.484 1.484 0 0 0-.29-.363.832.832 0 0 0-.343-.194l-4.863-1.239a.429.429 0 0 0-.293.024.562.562 0 0 0-.227.211c-.063.097-.11.219-.14.359a1.79 1.79 0 0 0-.031.473l.423 7.23Z"/></mask><g mask="url(#J)"><path fill="url(#K)" d="M290.928 465.985c.009.163.039.326.085.481.045.155.107.302.18.434s.158.248.25.341a.82.82 0 0 0 .295.202l4.696 1.766a.53.53 0 0 0 .323.025.518.518 0 0 0 .261-.169.853.853 0 0 0 .17-.332c.039-.135.058-.293.052-.467l-.256-7.756a2.17 2.17 0 0 0-.292-1.026 1.484 1.484 0 0 0-.29-.363.832.832 0 0 0-.343-.194l-4.863-1.239a.429.429 0 0 0-.293.024.562.562 0 0 0-.227.211c-.063.097-.11.219-.14.359a1.79 1.79 0 0 0-.031.473l.423 7.23Z"/></g><mask id="L" width="7" height="12" x="291" y="468" maskUnits="userSpaceOnUse" style="mask-type:luminance"><path fill="#fff" d="M296.787 470.077a.974.974 0 0 0-.33-.223l-4.685-1.798a.44.44 0 0 0-.284-.018.435.435 0 0 0-.22.161.807.807 0 0 0-.136.309c-.03.124-.041.268-.032.427l.39 6.665c.009.151.037.304.081.452.044.148.103.291.173.421a1.8 1.8 0 0 0 .242.346.973.973 0 0 0 .285.224l4.53 2.237a.568.568 0 0 0 .312.065.422.422 0 0 0 .251-.119.655.655 0 0 0 .164-.281c.038-.119.056-.26.051-.42l-.235-7.104a2.152 2.152 0 0 0-.279-.973 1.673 1.673 0 0 0-.278-.371Z"/></mask><g mask="url(#L)"><path fill="url(#M)" d="M296.787 470.077a.974.974 0 0 0-.33-.223l-4.685-1.798a.44.44 0 0 0-.284-.018.435.435 0 0 0-.22.161.807.807 0 0 0-.136.309c-.03.124-.041.268-.032.427l.39 6.665c.009.151.037.304.081.452.044.148.103.291.173.421a1.8 1.8 0 0 0 .242.346.973.973 0 0 0 .285.224l4.53 2.237a.568.568 0 0 0 .312.065.422.422 0 0 0 .251-.119.655.655 0 0 0 .164-.281c.038-.119.056-.26.051-.42l-.235-7.104a2.152 2.152 0 0 0-.279-.973 1.673 1.673 0 0 0-.278-.371Z"/></g><mask id="N" width="7" height="12" x="291" y="477" maskUnits="userSpaceOnUse" style="mask-type:luminance"><path fill="#fff" d="M297.595 480.946a2.236 2.236 0 0 0-.188-.451 1.883 1.883 0 0 0-.267-.375 1.12 1.12 0 0 0-.317-.247l-4.521-2.264a.47.47 0 0 0-.275-.054.352.352 0 0 0-.214.118.624.624 0 0 0-.132.264c-.029.11-.04.241-.032.388l.361 6.164c.008.139.035.283.077.425.042.141.099.28.167.409.068.129.147.248.233.349.087.102.18.185.276.243l4.376 2.631a.635.635 0 0 0 .3.099.375.375 0 0 0 .243-.078.512.512 0 0 0 .159-.237c.036-.104.054-.231.049-.378l-.216-6.531a1.918 1.918 0 0 0-.079-.475Z"/></mask><g mask="url(#N)"><path fill="url(#O)" d="M297.595 480.946a2.236 2.236 0 0 0-.188-.451 1.883 1.883 0 0 0-.267-.375 1.12 1.12 0 0 0-.317-.247l-4.521-2.264a.47.47 0 0 0-.275-.054.352.352 0 0 0-.214.118.624.624 0 0 0-.132.264c-.029.11-.04.241-.032.388l.361 6.164c.008.139.035.283.077.425.042.141.099.28.167.409.068.129.147.248.233.349.087.102.18.185.276.243l4.376 2.631a.635.635 0 0 0 .3.099.375.375 0 0 0 .243-.078.512.512 0 0 0 .159-.237c.036-.104.054-.231.049-.378l-.216-6.531a1.918 1.918 0 0 0-.079-.475Z"/></g><mask id="P" width="7" height="11" x="284" y="456" maskUnits="userSpaceOnUse" style="mask-type:luminance"><path fill="#fff" d="M285.648 465.069a.717.717 0 0 0 .255.18l4.014 1.509c.098.037.19.04.272.013a.428.428 0 0 0 .214-.165.852.852 0 0 0 .134-.315c.028-.127.04-.274.03-.436l-.431-7.2a2.315 2.315 0 0 0-.089-.502 2.062 2.062 0 0 0-.184-.441 1.389 1.389 0 0 0-.253-.331.698.698 0 0 0-.293-.172l-4.13-1.052a.331.331 0 0 0-.247.028.482.482 0 0 0-.187.201 1.043 1.043 0 0 0-.11.337 1.87 1.87 0 0 0-.014.442l.548 6.742a2.244 2.244 0 0 0 .25.849c.065.121.14.228.221.313Z"/></mask><g mask="url(#P)"><path fill="url(#Q)" d="M285.648 465.069a.717.717 0 0 0 .255.18l4.014 1.509c.098.037.19.04.272.013a.428.428 0 0 0 .214-.165.852.852 0 0 0 .134-.315c.028-.127.04-.274.03-.436l-.431-7.2a2.315 2.315 0 0 0-.089-.502 2.062 2.062 0 0 0-.184-.441 1.389 1.389 0 0 0-.253-.331.698.698 0 0 0-.293-.172l-4.13-1.052a.331.331 0 0 0-.247.028.482.482 0 0 0-.187.201 1.043 1.043 0 0 0-.11.337 1.87 1.87 0 0 0-.014.442l.548 6.742a2.244 2.244 0 0 0 .25.849c.065.121.14.228.221.313Z"/></g><mask id="R" width="7" height="12" x="285" y="465" maskUnits="userSpaceOnUse" style="mask-type:luminance"><path fill="#fff" d="M286.364 474.049a.843.843 0 0 0 .248.2l3.896 1.924a.427.427 0 0 0 .264.048.354.354 0 0 0 .208-.122.654.654 0 0 0 .131-.271c.028-.112.039-.246.03-.396l-.398-6.639a2.21 2.21 0 0 0-.261-.899 1.605 1.605 0 0 0-.244-.337.824.824 0 0 0-.284-.198l-4.005-1.537a.336.336 0 0 0-.241-.008.37.37 0 0 0-.183.157.795.795 0 0 0-.108.294 1.525 1.525 0 0 0-.016.401l.509 6.253a2.138 2.138 0 0 0 .24.813c.063.121.136.229.214.317Z"/></mask><g mask="url(#R)"><path fill="url(#S)" d="M286.364 474.049a.843.843 0 0 0 .248.2l3.896 1.924a.427.427 0 0 0 .264.048.354.354 0 0 0 .208-.122.654.654 0 0 0 .131-.271c.028-.112.039-.246.03-.396l-.398-6.639a2.21 2.21 0 0 0-.261-.899 1.605 1.605 0 0 0-.244-.337.824.824 0 0 0-.284-.198l-4.005-1.537a.336.336 0 0 0-.241-.008.37.37 0 0 0-.183.157.795.795 0 0 0-.108.294 1.525 1.525 0 0 0-.016.401l.509 6.253a2.138 2.138 0 0 0 .24.813c.063.121.136.229.214.317Z"/></g><mask id="T" width="6" height="11" x="286" y="474" maskUnits="userSpaceOnUse" style="mask-type:luminance"><path fill="#fff" d="M291.304 478.147a2.213 2.213 0 0 0-.251-.858 1.712 1.712 0 0 0-.236-.341.94.94 0 0 0-.274-.219l-3.889-1.947a.362.362 0 0 0-.235-.041.308.308 0 0 0-.179.12.623.623 0 0 0-.105.255 1.304 1.304 0 0 0-.017.367l.473 5.814c.01.132.037.267.077.4.04.132.092.261.154.38.061.119.132.228.208.32a.975.975 0 0 0 .241.216l3.784 2.275a.476.476 0 0 0 .257.079.302.302 0 0 0 .202-.086.497.497 0 0 0 .127-.232c.028-.099.039-.22.031-.359l-.368-6.143Z"/></mask><g mask="url(#T)"><path fill="url(#U)" d="M291.304 478.147a2.213 2.213 0 0 0-.251-.858 1.712 1.712 0 0 0-.236-.341.94.94 0 0 0-.274-.219l-3.889-1.947a.362.362 0 0 0-.235-.041.308.308 0 0 0-.179.12.623.623 0 0 0-.105.255 1.304 1.304 0 0 0-.017.367l.473 5.814c.01.132.037.267.077.4.04.132.092.261.154.38.061.119.132.228.208.32a.975.975 0 0 0 .241.216l3.784 2.275a.476.476 0 0 0 .257.079.302.302 0 0 0 .202-.086.497.497 0 0 0 .127-.232c.028-.099.039-.22.031-.359l-.368-6.143Z"/></g><mask id="V" width="13" height="3" x="285" y="454" maskUnits="userSpaceOnUse" style="mask-type:luminance"><path fill="#fff" d="m297.186 455.147-4.29-.887a2.563 2.563 0 0 0-.337-.043 5.355 5.355 0 0 0-.838.011c-.142.013-.279.03-.403.052l-5.581 1.008a2.139 2.139 0 0 0-.332.082.467.467 0 0 0-.175.091c-.031.031-.034.062-.006.09.027.029.086.055.177.078l4.139 1.022c.102.025.228.043.369.055a5.651 5.651 0 0 0 1.399-.075l5.732-1.142c.127-.025.226-.054.296-.084.07-.03.112-.062.125-.093.013-.03-.003-.061-.049-.089a.756.756 0 0 0-.226-.076Z"/></mask><g mask="url(#V)"><path fill="url(#W)" d="m297.186 455.147-4.29-.887a2.563 2.563 0 0 0-.337-.043 5.355 5.355 0 0 0-.838.011c-.142.013-.279.03-.403.052l-5.581 1.008a2.139 2.139 0 0 0-.332.082.467.467 0 0 0-.175.091c-.031.031-.034.062-.006.09.027.029.086.055.177.078l4.139 1.022c.102.025.228.043.369.055a5.651 5.651 0 0 0 1.399-.075l5.732-1.142c.127-.025.226-.054.296-.084.07-.03.112-.062.125-.093.013-.03-.003-.061-.049-.089a.756.756 0 0 0-.226-.076Z"/></g><defs><linearGradient id="c" x1="338.556" x2="313.301" y1="459.03" y2="499.078" gradientUnits="userSpaceOnUse"><stop stop-color="#F7ED19"/><stop offset="1" stop-color="#F08849"/></linearGradient><linearGradient id="e" x1="334.791" x2="309.537" y1="456.656" y2="496.705" gradientUnits="userSpaceOnUse"><stop stop-color="#F7ED19"/><stop offset="1" stop-color="#F08849"/></linearGradient><linearGradient id="g" x1="330.643" x2="305.388" y1="454.04" y2="494.089" gradientUnits="userSpaceOnUse"><stop stop-color="#F7ED19"/><stop offset="1" stop-color="#F08849"/></linearGradient><linearGradient id="i" x1="323.347" x2="314.49" y1="452.85" y2="469.34" gradientUnits="userSpaceOnUse"><stop stop-color="#EB222C"/><stop offset="1" stop-color="#E22D40"/></linearGradient><linearGradient id="k" x1="316.818" x2="307.96" y1="449.343" y2="465.833" gradientUnits="userSpaceOnUse"><stop stop-color="#EB222C"/><stop offset="1" stop-color="#E22D40"/></linearGradient><linearGradient id="m" x1="311.252" x2="302.394" y1="446.353" y2="462.843" gradientUnits="userSpaceOnUse"><stop stop-color="#EB222C"/><stop offset="1" stop-color="#E22D40"/></linearGradient><linearGradient id="o" x1="310.465" x2="321.217" y1="446.725" y2="472.777" gradientUnits="userSpaceOnUse"><stop stop-color="#EB222C"/><stop offset="1" stop-color="#E22D40"/></linearGradient><linearGradient id="q" x1="307.328" x2="318.08" y1="448.019" y2="474.072" gradientUnits="userSpaceOnUse"><stop stop-color="#EB222C"/><stop offset="1" stop-color="#E22D40"/></linearGradient><linearGradient id="s" x1="304.483" x2="315.235" y1="449.193" y2="475.246" gradientUnits="userSpaceOnUse"><stop stop-color="#EB222C"/><stop offset="1" stop-color="#E22D40"/></linearGradient><linearGradient id="u" x1="300.993" x2="296.196" y1="444.007" y2="463.125" gradientUnits="userSpaceOnUse"><stop stop-color="#EB222C"/><stop offset="1" stop-color="#E22D40"/></linearGradient><linearGradient id="w" x1="308.671" x2="303.873" y1="445.934" y2="465.052" gradientUnits="userSpaceOnUse"><stop stop-color="#EB222C"/><stop offset="1" stop-color="#E22D40"/></linearGradient><linearGradient id="y" x1="320.523" x2="295.7" y1="447.262" y2="488.908" gradientUnits="userSpaceOnUse"><stop stop-color="#F7ED19"/><stop offset="1" stop-color="#F08849"/></linearGradient><linearGradient id="A" x1="325.274" x2="300.45" y1="450.094" y2="491.74" gradientUnits="userSpaceOnUse"><stop stop-color="#F7ED19"/><stop offset="1" stop-color="#F08849"/></linearGradient><linearGradient id="C" x1="329.592" x2="304.768" y1="452.667" y2="494.314" gradientUnits="userSpaceOnUse"><stop stop-color="#F7ED19"/><stop offset="1" stop-color="#F08849"/></linearGradient><linearGradient id="E" x1="307.596" x2="280.063" y1="459.289" y2="487.582" gradientUnits="userSpaceOnUse"><stop stop-color="#43C1F2"/><stop offset="1" stop-color="#1F87CD"/></linearGradient><linearGradient id="G" x1="313.167" x2="285.633" y1="464.709" y2="493.002" gradientUnits="userSpaceOnUse"><stop stop-color="#43C1F2"/><stop offset="1" stop-color="#1F87CD"/></linearGradient><linearGradient id="I" x1="318.257" x2="290.724" y1="469.663" y2="497.956" gradientUnits="userSpaceOnUse"><stop stop-color="#43C1F2"/><stop offset="1" stop-color="#1F87CD"/></linearGradient><linearGradient id="K" x1="302.597" x2="275.064" y1="454.423" y2="482.717" gradientUnits="userSpaceOnUse"><stop stop-color="#43C1F2"/><stop offset="1" stop-color="#1F87CD"/></linearGradient><linearGradient id="M" x1="307.929" x2="280.395" y1="459.612" y2="487.905" gradientUnits="userSpaceOnUse"><stop stop-color="#43C1F2"/><stop offset="1" stop-color="#1F87CD"/></linearGradient><linearGradient id="O" x1="312.837" x2="285.304" y1="464.389" y2="492.682" gradientUnits="userSpaceOnUse"><stop stop-color="#43C1F2"/><stop offset="1" stop-color="#1F87CD"/></linearGradient><linearGradient id="Q" x1="298.369" x2="270.835" y1="450.309" y2="478.602" gradientUnits="userSpaceOnUse"><stop stop-color="#43C1F2"/><stop offset="1" stop-color="#1F87CD"/></linearGradient><linearGradient id="S" x1="303.468" x2="275.935" y1="455.271" y2="483.564" gradientUnits="userSpaceOnUse"><stop stop-color="#43C1F2"/><stop offset="1" stop-color="#1F87CD"/></linearGradient><linearGradient id="U" x1="308.192" x2="280.658" y1="459.867" y2="488.161" gradientUnits="userSpaceOnUse"><stop stop-color="#43C1F2"/><stop offset="1" stop-color="#1F87CD"/></linearGradient><linearGradient id="W" x1="294.574" x2="289.775" y1="442.396" y2="461.514" gradientUnits="userSpaceOnUse"><stop stop-color="#EB222C"/><stop offset="1" stop-color="#E22D40"/></linearGradient><clipPath id="a"><path fill="#fff" d="M119 627h37v37h-37z"/></clipPath></defs></svg>